<mxfile host="Electron" agent="Mozilla/5.0 (Windows NT 10.0; Win64; x64) AppleWebKit/537.36 (KHTML, like Gecko) draw.io/28.1.2 Chrome/138.0.7204.243 Electron/37.4.0 Safari/537.36" version="28.1.2">
  <diagram name="Page-1" id="lbacarZHUWlxwYPy0b-3">
    <mxGraphModel dx="1426" dy="841" grid="1" gridSize="10" guides="1" tooltips="1" connect="1" arrows="1" fold="1" page="1" pageScale="1" pageWidth="2339" pageHeight="3300" math="0" shadow="0">
      <root>
        <mxCell id="0" />
        <mxCell id="1" parent="0" />
        <mxCell id="mf6P8XxBVrMbEDZyE755-21" style="edgeStyle=orthogonalEdgeStyle;rounded=0;orthogonalLoop=1;jettySize=auto;html=1;entryX=0;entryY=0.5;entryDx=0;entryDy=0;labelBackgroundColor=none;strokeColor=#0B4D6A;fontColor=default;" parent="1" source="mf6P8XxBVrMbEDZyE755-1" target="mf6P8XxBVrMbEDZyE755-2" edge="1">
          <mxGeometry relative="1" as="geometry" />
        </mxCell>
        <mxCell id="mf6P8XxBVrMbEDZyE755-1" value="S" style="whiteSpace=wrap;html=1;aspect=fixed;labelBackgroundColor=none;fillColor=#09555B;strokeColor=#BAC8D3;fontColor=#EEEEEE;" parent="1" vertex="1">
          <mxGeometry x="340" y="580" width="40" height="40" as="geometry" />
        </mxCell>
        <mxCell id="mf6P8XxBVrMbEDZyE755-22" style="edgeStyle=orthogonalEdgeStyle;rounded=0;orthogonalLoop=1;jettySize=auto;html=1;entryX=0;entryY=0.5;entryDx=0;entryDy=0;labelBackgroundColor=none;strokeColor=#0B4D6A;fontColor=default;" parent="1" source="mf6P8XxBVrMbEDZyE755-2" target="mf6P8XxBVrMbEDZyE755-9" edge="1">
          <mxGeometry relative="1" as="geometry" />
        </mxCell>
        <mxCell id="mf6P8XxBVrMbEDZyE755-23" style="edgeStyle=orthogonalEdgeStyle;rounded=0;orthogonalLoop=1;jettySize=auto;html=1;entryX=0;entryY=0.5;entryDx=0;entryDy=0;labelBackgroundColor=none;strokeColor=#0B4D6A;fontColor=default;" parent="1" source="mf6P8XxBVrMbEDZyE755-2" target="mf6P8XxBVrMbEDZyE755-10" edge="1">
          <mxGeometry relative="1" as="geometry" />
        </mxCell>
        <mxCell id="mf6P8XxBVrMbEDZyE755-24" style="edgeStyle=orthogonalEdgeStyle;rounded=0;orthogonalLoop=1;jettySize=auto;html=1;entryX=0;entryY=0.5;entryDx=0;entryDy=0;labelBackgroundColor=none;strokeColor=#0B4D6A;fontColor=default;" parent="1" source="mf6P8XxBVrMbEDZyE755-2" target="mf6P8XxBVrMbEDZyE755-11" edge="1">
          <mxGeometry relative="1" as="geometry" />
        </mxCell>
        <mxCell id="R7ZWtzlmhz3wFBx1uZoV-77" style="edgeStyle=orthogonalEdgeStyle;rounded=0;orthogonalLoop=1;jettySize=auto;html=1;entryX=0;entryY=0.75;entryDx=0;entryDy=0;strokeColor=#0B4D6A;labelBackgroundColor=none;fontColor=default;" parent="1" source="mf6P8XxBVrMbEDZyE755-2" target="mf6P8XxBVrMbEDZyE755-14" edge="1">
          <mxGeometry relative="1" as="geometry" />
        </mxCell>
        <mxCell id="R7ZWtzlmhz3wFBx1uZoV-78" style="edgeStyle=orthogonalEdgeStyle;rounded=0;orthogonalLoop=1;jettySize=auto;html=1;entryX=0;entryY=0.5;entryDx=0;entryDy=0;strokeColor=#0B4D6A;labelBackgroundColor=none;fontColor=default;" parent="1" source="mf6P8XxBVrMbEDZyE755-2" target="mf6P8XxBVrMbEDZyE755-12" edge="1">
          <mxGeometry relative="1" as="geometry" />
        </mxCell>
        <mxCell id="mf6P8XxBVrMbEDZyE755-2" value="E" style="whiteSpace=wrap;html=1;aspect=fixed;labelBackgroundColor=none;fillColor=#09555B;strokeColor=#BAC8D3;fontColor=#EEEEEE;" parent="1" vertex="1">
          <mxGeometry x="540" y="580" width="40" height="40" as="geometry" />
        </mxCell>
        <mxCell id="mf6P8XxBVrMbEDZyE755-17" style="edgeStyle=orthogonalEdgeStyle;rounded=0;orthogonalLoop=1;jettySize=auto;html=1;entryX=0;entryY=0.5;entryDx=0;entryDy=0;labelBackgroundColor=none;strokeColor=#0B4D6A;fontColor=default;" parent="1" source="mf6P8XxBVrMbEDZyE755-3" target="mf6P8XxBVrMbEDZyE755-1" edge="1">
          <mxGeometry relative="1" as="geometry" />
        </mxCell>
        <mxCell id="mf6P8XxBVrMbEDZyE755-18" style="edgeStyle=orthogonalEdgeStyle;rounded=0;orthogonalLoop=1;jettySize=auto;html=1;entryX=0;entryY=0.5;entryDx=0;entryDy=0;labelBackgroundColor=none;strokeColor=#0B4D6A;fontColor=default;" parent="1" source="mf6P8XxBVrMbEDZyE755-3" target="mf6P8XxBVrMbEDZyE755-4" edge="1">
          <mxGeometry relative="1" as="geometry" />
        </mxCell>
        <mxCell id="mf6P8XxBVrMbEDZyE755-3" value="It" style="whiteSpace=wrap;html=1;aspect=fixed;labelBackgroundColor=none;fillColor=#09555B;strokeColor=#BAC8D3;fontColor=#EEEEEE;" parent="1" vertex="1">
          <mxGeometry x="230" y="510" width="40" height="40" as="geometry" />
        </mxCell>
        <mxCell id="mf6P8XxBVrMbEDZyE755-19" style="edgeStyle=orthogonalEdgeStyle;rounded=0;orthogonalLoop=1;jettySize=auto;html=1;entryX=0.5;entryY=1;entryDx=0;entryDy=0;labelBackgroundColor=none;strokeColor=#0B4D6A;fontColor=default;" parent="1" source="mf6P8XxBVrMbEDZyE755-4" target="mf6P8XxBVrMbEDZyE755-5" edge="1">
          <mxGeometry relative="1" as="geometry" />
        </mxCell>
        <mxCell id="mf6P8XxBVrMbEDZyE755-36" style="edgeStyle=orthogonalEdgeStyle;rounded=0;orthogonalLoop=1;jettySize=auto;html=1;entryX=0.25;entryY=0;entryDx=0;entryDy=0;labelBackgroundColor=none;strokeColor=#0B4D6A;fontColor=default;" parent="1" source="mf6P8XxBVrMbEDZyE755-4" target="mf6P8XxBVrMbEDZyE755-2" edge="1">
          <mxGeometry relative="1" as="geometry" />
        </mxCell>
        <mxCell id="NtCEvDegohAPe1VXdEg8-4" style="edgeStyle=orthogonalEdgeStyle;rounded=0;orthogonalLoop=1;jettySize=auto;html=1;entryX=0;entryY=0;entryDx=0;entryDy=0;labelBackgroundColor=none;strokeColor=#0B4D6A;fontColor=default;" parent="1" source="mf6P8XxBVrMbEDZyE755-4" target="mf6P8XxBVrMbEDZyE755-1" edge="1">
          <mxGeometry relative="1" as="geometry">
            <Array as="points">
              <mxPoint x="340" y="520" />
              <mxPoint x="340" y="520" />
            </Array>
          </mxGeometry>
        </mxCell>
        <mxCell id="mf6P8XxBVrMbEDZyE755-4" value="V1" style="whiteSpace=wrap;html=1;aspect=fixed;labelBackgroundColor=none;fillColor=#09555B;strokeColor=#BAC8D3;fontColor=#EEEEEE;" parent="1" vertex="1">
          <mxGeometry x="340" y="460" width="40" height="40" as="geometry" />
        </mxCell>
        <mxCell id="mf6P8XxBVrMbEDZyE755-20" style="edgeStyle=orthogonalEdgeStyle;rounded=0;orthogonalLoop=1;jettySize=auto;html=1;entryX=0.5;entryY=1;entryDx=0;entryDy=0;labelBackgroundColor=none;strokeColor=#0B4D6A;fontColor=default;" parent="1" source="mf6P8XxBVrMbEDZyE755-5" target="mf6P8XxBVrMbEDZyE755-8" edge="1">
          <mxGeometry relative="1" as="geometry" />
        </mxCell>
        <mxCell id="mf6P8XxBVrMbEDZyE755-37" style="edgeStyle=orthogonalEdgeStyle;rounded=0;orthogonalLoop=1;jettySize=auto;html=1;entryX=0.5;entryY=0;entryDx=0;entryDy=0;labelBackgroundColor=none;strokeColor=#0B4D6A;fontColor=default;" parent="1" source="mf6P8XxBVrMbEDZyE755-5" target="mf6P8XxBVrMbEDZyE755-2" edge="1">
          <mxGeometry relative="1" as="geometry" />
        </mxCell>
        <mxCell id="NtCEvDegohAPe1VXdEg8-5" style="edgeStyle=orthogonalEdgeStyle;rounded=0;orthogonalLoop=1;jettySize=auto;html=1;entryX=0.25;entryY=0;entryDx=0;entryDy=0;labelBackgroundColor=none;strokeColor=#0B4D6A;fontColor=default;" parent="1" source="mf6P8XxBVrMbEDZyE755-5" target="mf6P8XxBVrMbEDZyE755-1" edge="1">
          <mxGeometry relative="1" as="geometry">
            <Array as="points">
              <mxPoint x="390" y="400" />
              <mxPoint x="390" y="510" />
              <mxPoint x="350" y="510" />
            </Array>
          </mxGeometry>
        </mxCell>
        <mxCell id="mf6P8XxBVrMbEDZyE755-5" value="V2" style="whiteSpace=wrap;html=1;aspect=fixed;labelBackgroundColor=none;fillColor=#09555B;strokeColor=#BAC8D3;fontColor=#EEEEEE;" parent="1" vertex="1">
          <mxGeometry x="340" y="380" width="40" height="40" as="geometry" />
        </mxCell>
        <mxCell id="mf6P8XxBVrMbEDZyE755-38" style="edgeStyle=orthogonalEdgeStyle;rounded=0;orthogonalLoop=1;jettySize=auto;html=1;entryX=0.75;entryY=0;entryDx=0;entryDy=0;labelBackgroundColor=none;strokeColor=#0B4D6A;fontColor=default;" parent="1" source="mf6P8XxBVrMbEDZyE755-8" target="mf6P8XxBVrMbEDZyE755-2" edge="1">
          <mxGeometry relative="1" as="geometry" />
        </mxCell>
        <mxCell id="NtCEvDegohAPe1VXdEg8-2" style="edgeStyle=orthogonalEdgeStyle;rounded=0;orthogonalLoop=1;jettySize=auto;html=1;entryX=0.5;entryY=1;entryDx=0;entryDy=0;labelBackgroundColor=none;strokeColor=#0B4D6A;fontColor=default;" parent="1" source="mf6P8XxBVrMbEDZyE755-8" target="NtCEvDegohAPe1VXdEg8-1" edge="1">
          <mxGeometry relative="1" as="geometry" />
        </mxCell>
        <mxCell id="5qOSqGZzdjy9FoUPjAv1-1" style="edgeStyle=orthogonalEdgeStyle;rounded=0;orthogonalLoop=1;jettySize=auto;html=1;entryX=0;entryY=0.75;entryDx=0;entryDy=0;labelBackgroundColor=none;strokeColor=#0B4D6A;fontColor=default;" edge="1" parent="1" source="mf6P8XxBVrMbEDZyE755-8" target="tYlpURE7iPbaFBDL3-4g-1">
          <mxGeometry relative="1" as="geometry">
            <Array as="points">
              <mxPoint x="310" y="320" />
              <mxPoint x="310" y="150" />
            </Array>
          </mxGeometry>
        </mxCell>
        <mxCell id="mf6P8XxBVrMbEDZyE755-8" value="V3" style="whiteSpace=wrap;html=1;aspect=fixed;labelBackgroundColor=none;fillColor=#09555B;strokeColor=#BAC8D3;fontColor=#EEEEEE;" parent="1" vertex="1">
          <mxGeometry x="340" y="300" width="40" height="40" as="geometry" />
        </mxCell>
        <mxCell id="mf6P8XxBVrMbEDZyE755-35" style="edgeStyle=orthogonalEdgeStyle;rounded=0;orthogonalLoop=1;jettySize=auto;html=1;entryX=0.75;entryY=0;entryDx=0;entryDy=0;labelBackgroundColor=none;strokeColor=#0B4D6A;fontColor=default;" parent="1" source="mf6P8XxBVrMbEDZyE755-9" target="mf6P8XxBVrMbEDZyE755-16" edge="1">
          <mxGeometry relative="1" as="geometry" />
        </mxCell>
        <mxCell id="mf6P8XxBVrMbEDZyE755-9" value="A" style="whiteSpace=wrap;html=1;aspect=fixed;labelBackgroundColor=none;fillColor=#09555B;strokeColor=#BAC8D3;fontColor=#EEEEEE;" parent="1" vertex="1">
          <mxGeometry x="750" y="460" width="40" height="40" as="geometry" />
        </mxCell>
        <mxCell id="R7ZWtzlmhz3wFBx1uZoV-3" style="edgeStyle=orthogonalEdgeStyle;rounded=0;orthogonalLoop=1;jettySize=auto;html=1;entryX=1;entryY=0.75;entryDx=0;entryDy=0;labelBackgroundColor=none;strokeColor=#0B4D6A;fontColor=default;" parent="1" source="mf6P8XxBVrMbEDZyE755-10" target="mf6P8XxBVrMbEDZyE755-9" edge="1">
          <mxGeometry relative="1" as="geometry">
            <Array as="points">
              <mxPoint x="810" y="640" />
              <mxPoint x="810" y="490" />
            </Array>
          </mxGeometry>
        </mxCell>
        <mxCell id="mf6P8XxBVrMbEDZyE755-10" value="U" style="whiteSpace=wrap;html=1;aspect=fixed;labelBackgroundColor=none;fillColor=#09555B;strokeColor=#BAC8D3;fontColor=#EEEEEE;" parent="1" vertex="1">
          <mxGeometry x="750" y="620" width="40" height="40" as="geometry" />
        </mxCell>
        <mxCell id="R7ZWtzlmhz3wFBx1uZoV-4" style="edgeStyle=orthogonalEdgeStyle;rounded=0;orthogonalLoop=1;jettySize=auto;html=1;entryX=1;entryY=0.25;entryDx=0;entryDy=0;labelBackgroundColor=none;strokeColor=#0B4D6A;fontColor=default;" parent="1" source="mf6P8XxBVrMbEDZyE755-11" target="mf6P8XxBVrMbEDZyE755-9" edge="1">
          <mxGeometry relative="1" as="geometry">
            <Array as="points">
              <mxPoint x="820" y="700" />
              <mxPoint x="820" y="470" />
            </Array>
          </mxGeometry>
        </mxCell>
        <mxCell id="mf6P8XxBVrMbEDZyE755-11" value="C" style="whiteSpace=wrap;html=1;aspect=fixed;labelBackgroundColor=none;fillColor=#09555B;strokeColor=#BAC8D3;fontColor=#EEEEEE;" parent="1" vertex="1">
          <mxGeometry x="750" y="680" width="40" height="40" as="geometry" />
        </mxCell>
        <mxCell id="R7ZWtzlmhz3wFBx1uZoV-1" style="edgeStyle=orthogonalEdgeStyle;rounded=0;orthogonalLoop=1;jettySize=auto;html=1;entryX=0.5;entryY=1;entryDx=0;entryDy=0;labelBackgroundColor=none;strokeColor=#0B4D6A;fontColor=default;" parent="1" source="mf6P8XxBVrMbEDZyE755-12" target="mf6P8XxBVrMbEDZyE755-9" edge="1">
          <mxGeometry relative="1" as="geometry" />
        </mxCell>
        <mxCell id="R7ZWtzlmhz3wFBx1uZoV-8" style="edgeStyle=orthogonalEdgeStyle;rounded=0;orthogonalLoop=1;jettySize=auto;html=1;entryX=0;entryY=0.25;entryDx=0;entryDy=0;labelBackgroundColor=none;strokeColor=#0B4D6A;fontColor=default;" parent="1" source="mf6P8XxBVrMbEDZyE755-12" target="mf6P8XxBVrMbEDZyE755-16" edge="1">
          <mxGeometry relative="1" as="geometry">
            <Array as="points">
              <mxPoint x="950" y="540" />
              <mxPoint x="950" y="610" />
            </Array>
          </mxGeometry>
        </mxCell>
        <mxCell id="mf6P8XxBVrMbEDZyE755-12" value="Tu" style="whiteSpace=wrap;html=1;aspect=fixed;labelBackgroundColor=none;fillColor=#09555B;strokeColor=#BAC8D3;fontColor=#EEEEEE;" parent="1" vertex="1">
          <mxGeometry x="750" y="520" width="40" height="40" as="geometry" />
        </mxCell>
        <mxCell id="R7ZWtzlmhz3wFBx1uZoV-2" style="edgeStyle=orthogonalEdgeStyle;rounded=0;orthogonalLoop=1;jettySize=auto;html=1;entryX=0;entryY=0.75;entryDx=0;entryDy=0;labelBackgroundColor=none;strokeColor=#0B4D6A;fontColor=default;" parent="1" source="mf6P8XxBVrMbEDZyE755-14" target="mf6P8XxBVrMbEDZyE755-9" edge="1">
          <mxGeometry relative="1" as="geometry">
            <Array as="points">
              <mxPoint x="730" y="590" />
              <mxPoint x="730" y="490" />
            </Array>
          </mxGeometry>
        </mxCell>
        <mxCell id="R7ZWtzlmhz3wFBx1uZoV-6" style="edgeStyle=orthogonalEdgeStyle;rounded=0;orthogonalLoop=1;jettySize=auto;html=1;entryX=0;entryY=0.5;entryDx=0;entryDy=0;labelBackgroundColor=none;strokeColor=#0B4D6A;fontColor=default;" parent="1" source="mf6P8XxBVrMbEDZyE755-14" target="mf6P8XxBVrMbEDZyE755-16" edge="1">
          <mxGeometry relative="1" as="geometry" />
        </mxCell>
        <mxCell id="mf6P8XxBVrMbEDZyE755-14" value="Tc" style="whiteSpace=wrap;html=1;aspect=fixed;labelBackgroundColor=none;fillColor=#09555B;strokeColor=#BAC8D3;fontColor=#EEEEEE;" parent="1" vertex="1">
          <mxGeometry x="750" y="570" width="40" height="40" as="geometry" />
        </mxCell>
        <mxCell id="NtCEvDegohAPe1VXdEg8-8" style="edgeStyle=orthogonalEdgeStyle;rounded=0;orthogonalLoop=1;jettySize=auto;html=1;entryX=0.5;entryY=1;entryDx=0;entryDy=0;labelBackgroundColor=none;strokeColor=#0B4D6A;fontColor=default;" parent="1" source="mf6P8XxBVrMbEDZyE755-16" target="mf6P8XxBVrMbEDZyE755-1" edge="1">
          <mxGeometry relative="1" as="geometry">
            <Array as="points">
              <mxPoint x="1120" y="740" />
              <mxPoint x="360" y="740" />
            </Array>
          </mxGeometry>
        </mxCell>
        <mxCell id="mf6P8XxBVrMbEDZyE755-16" value="R" style="whiteSpace=wrap;html=1;aspect=fixed;labelBackgroundColor=none;fillColor=#09555B;strokeColor=#BAC8D3;fontColor=#EEEEEE;" parent="1" vertex="1">
          <mxGeometry x="1100" y="600" width="40" height="40" as="geometry" />
        </mxCell>
        <mxCell id="mf6P8XxBVrMbEDZyE755-114" style="edgeStyle=orthogonalEdgeStyle;rounded=0;orthogonalLoop=1;jettySize=auto;html=1;entryX=0;entryY=0.5;entryDx=0;entryDy=0;labelBackgroundColor=none;strokeColor=#0B4D6A;fontColor=default;" parent="1" source="mf6P8XxBVrMbEDZyE755-111" target="mf6P8XxBVrMbEDZyE755-112" edge="1">
          <mxGeometry relative="1" as="geometry" />
        </mxCell>
        <mxCell id="mf6P8XxBVrMbEDZyE755-111" value="S" style="whiteSpace=wrap;html=1;aspect=fixed;labelBackgroundColor=none;fillColor=#09555B;strokeColor=#BAC8D3;fontColor=#EEEEEE;" parent="1" vertex="1">
          <mxGeometry x="500" y="1570" width="50" height="50" as="geometry" />
        </mxCell>
        <mxCell id="mf6P8XxBVrMbEDZyE755-115" style="edgeStyle=orthogonalEdgeStyle;rounded=0;orthogonalLoop=1;jettySize=auto;html=1;entryX=0;entryY=0.5;entryDx=0;entryDy=0;labelBackgroundColor=none;strokeColor=#0B4D6A;fontColor=default;" parent="1" source="mf6P8XxBVrMbEDZyE755-112" target="mf6P8XxBVrMbEDZyE755-113" edge="1">
          <mxGeometry relative="1" as="geometry" />
        </mxCell>
        <mxCell id="mf6P8XxBVrMbEDZyE755-112" value="E" style="whiteSpace=wrap;html=1;aspect=fixed;labelBackgroundColor=none;fillColor=#09555B;strokeColor=#BAC8D3;fontColor=#EEEEEE;" parent="1" vertex="1">
          <mxGeometry x="660" y="1570" width="50" height="50" as="geometry" />
        </mxCell>
        <mxCell id="mf6P8XxBVrMbEDZyE755-113" value="I" style="whiteSpace=wrap;html=1;aspect=fixed;labelBackgroundColor=none;fillColor=#09555B;strokeColor=#BAC8D3;fontColor=#EEEEEE;" parent="1" vertex="1">
          <mxGeometry x="800" y="1570" width="50" height="50" as="geometry" />
        </mxCell>
        <mxCell id="NtCEvDegohAPe1VXdEg8-3" style="edgeStyle=orthogonalEdgeStyle;rounded=0;orthogonalLoop=1;jettySize=auto;html=1;entryX=1;entryY=0;entryDx=0;entryDy=0;labelBackgroundColor=none;strokeColor=#0B4D6A;fontColor=default;" parent="1" source="NtCEvDegohAPe1VXdEg8-1" target="mf6P8XxBVrMbEDZyE755-2" edge="1">
          <mxGeometry relative="1" as="geometry" />
        </mxCell>
        <mxCell id="tYlpURE7iPbaFBDL3-4g-2" style="edgeStyle=orthogonalEdgeStyle;rounded=0;orthogonalLoop=1;jettySize=auto;html=1;entryX=0;entryY=0.5;entryDx=0;entryDy=0;labelBackgroundColor=none;strokeColor=#0B4D6A;fontColor=default;" parent="1" source="NtCEvDegohAPe1VXdEg8-1" target="tYlpURE7iPbaFBDL3-4g-1" edge="1">
          <mxGeometry relative="1" as="geometry" />
        </mxCell>
        <mxCell id="NtCEvDegohAPe1VXdEg8-1" value="V4" style="whiteSpace=wrap;html=1;aspect=fixed;labelBackgroundColor=none;fillColor=#09555B;strokeColor=#BAC8D3;fontColor=#EEEEEE;" parent="1" vertex="1">
          <mxGeometry x="340" y="220" width="40" height="40" as="geometry" />
        </mxCell>
        <mxCell id="tYlpURE7iPbaFBDL3-4g-3" style="edgeStyle=orthogonalEdgeStyle;rounded=0;orthogonalLoop=1;jettySize=auto;html=1;entryX=1;entryY=0.25;entryDx=0;entryDy=0;labelBackgroundColor=none;strokeColor=#0B4D6A;fontColor=default;" parent="1" source="tYlpURE7iPbaFBDL3-4g-1" target="mf6P8XxBVrMbEDZyE755-2" edge="1">
          <mxGeometry relative="1" as="geometry" />
        </mxCell>
        <mxCell id="tYlpURE7iPbaFBDL3-4g-4" style="edgeStyle=orthogonalEdgeStyle;rounded=0;orthogonalLoop=1;jettySize=auto;html=1;entryX=1;entryY=0;entryDx=0;entryDy=0;labelBackgroundColor=none;strokeColor=#0B4D6A;fontColor=default;" parent="1" source="tYlpURE7iPbaFBDL3-4g-1" target="mf6P8XxBVrMbEDZyE755-1" edge="1">
          <mxGeometry relative="1" as="geometry">
            <Array as="points">
              <mxPoint x="410" y="560" />
              <mxPoint x="380" y="560" />
            </Array>
          </mxGeometry>
        </mxCell>
        <mxCell id="tYlpURE7iPbaFBDL3-4g-1" value="V*" style="whiteSpace=wrap;html=1;aspect=fixed;labelBackgroundColor=none;fillColor=#09555B;strokeColor=#BAC8D3;fontColor=#EEEEEE;" parent="1" vertex="1">
          <mxGeometry x="380" y="120" width="40" height="40" as="geometry" />
        </mxCell>
        <mxCell id="R7ZWtzlmhz3wFBx1uZoV-9" style="edgeStyle=orthogonalEdgeStyle;rounded=0;orthogonalLoop=1;jettySize=auto;html=1;entryX=0;entryY=0.5;entryDx=0;entryDy=0;labelBackgroundColor=none;strokeColor=#0B4D6A;fontColor=default;" parent="1" source="R7ZWtzlmhz3wFBx1uZoV-10" target="R7ZWtzlmhz3wFBx1uZoV-14" edge="1">
          <mxGeometry relative="1" as="geometry" />
        </mxCell>
        <mxCell id="R7ZWtzlmhz3wFBx1uZoV-10" value="S" style="whiteSpace=wrap;html=1;aspect=fixed;labelBackgroundColor=none;fillColor=#09555B;strokeColor=#BAC8D3;fontColor=#EEEEEE;" parent="1" vertex="1">
          <mxGeometry x="350" y="1090" width="40" height="40" as="geometry" />
        </mxCell>
        <mxCell id="R7ZWtzlmhz3wFBx1uZoV-11" style="edgeStyle=orthogonalEdgeStyle;rounded=0;orthogonalLoop=1;jettySize=auto;html=1;entryX=0;entryY=0.5;entryDx=0;entryDy=0;labelBackgroundColor=none;strokeColor=#0B4D6A;fontColor=default;" parent="1" source="R7ZWtzlmhz3wFBx1uZoV-14" target="R7ZWtzlmhz3wFBx1uZoV-21" edge="1">
          <mxGeometry relative="1" as="geometry" />
        </mxCell>
        <mxCell id="R7ZWtzlmhz3wFBx1uZoV-12" style="edgeStyle=orthogonalEdgeStyle;rounded=0;orthogonalLoop=1;jettySize=auto;html=1;entryX=0;entryY=0.5;entryDx=0;entryDy=0;labelBackgroundColor=none;strokeColor=#0B4D6A;fontColor=default;" parent="1" source="R7ZWtzlmhz3wFBx1uZoV-14" target="R7ZWtzlmhz3wFBx1uZoV-23" edge="1">
          <mxGeometry relative="1" as="geometry" />
        </mxCell>
        <mxCell id="R7ZWtzlmhz3wFBx1uZoV-13" style="edgeStyle=orthogonalEdgeStyle;rounded=0;orthogonalLoop=1;jettySize=auto;html=1;entryX=0;entryY=0.5;entryDx=0;entryDy=0;labelBackgroundColor=none;strokeColor=#0B4D6A;fontColor=default;" parent="1" source="R7ZWtzlmhz3wFBx1uZoV-14" target="R7ZWtzlmhz3wFBx1uZoV-25" edge="1">
          <mxGeometry relative="1" as="geometry" />
        </mxCell>
        <mxCell id="R7ZWtzlmhz3wFBx1uZoV-74" style="edgeStyle=orthogonalEdgeStyle;rounded=0;orthogonalLoop=1;jettySize=auto;html=1;entryX=0;entryY=0.75;entryDx=0;entryDy=0;strokeColor=#0B4D6A;labelBackgroundColor=none;fontColor=default;" parent="1" source="R7ZWtzlmhz3wFBx1uZoV-14" target="R7ZWtzlmhz3wFBx1uZoV-31" edge="1">
          <mxGeometry relative="1" as="geometry" />
        </mxCell>
        <mxCell id="R7ZWtzlmhz3wFBx1uZoV-75" style="edgeStyle=orthogonalEdgeStyle;rounded=0;orthogonalLoop=1;jettySize=auto;html=1;entryX=0;entryY=0.5;entryDx=0;entryDy=0;strokeColor=#0B4D6A;labelBackgroundColor=none;fontColor=default;" parent="1" source="R7ZWtzlmhz3wFBx1uZoV-14" target="R7ZWtzlmhz3wFBx1uZoV-28" edge="1">
          <mxGeometry relative="1" as="geometry" />
        </mxCell>
        <mxCell id="R7ZWtzlmhz3wFBx1uZoV-14" value="E" style="whiteSpace=wrap;html=1;aspect=fixed;labelBackgroundColor=none;fillColor=#09555B;strokeColor=#BAC8D3;fontColor=#EEEEEE;" parent="1" vertex="1">
          <mxGeometry x="550" y="1090" width="40" height="40" as="geometry" />
        </mxCell>
        <mxCell id="R7ZWtzlmhz3wFBx1uZoV-20" style="edgeStyle=orthogonalEdgeStyle;rounded=0;orthogonalLoop=1;jettySize=auto;html=1;entryX=0.75;entryY=0;entryDx=0;entryDy=0;labelBackgroundColor=none;strokeColor=#0B4D6A;fontColor=default;" parent="1" source="R7ZWtzlmhz3wFBx1uZoV-21" target="R7ZWtzlmhz3wFBx1uZoV-33" edge="1">
          <mxGeometry relative="1" as="geometry" />
        </mxCell>
        <mxCell id="R7ZWtzlmhz3wFBx1uZoV-21" value="A" style="whiteSpace=wrap;html=1;aspect=fixed;labelBackgroundColor=none;fillColor=#09555B;strokeColor=#BAC8D3;fontColor=#EEEEEE;" parent="1" vertex="1">
          <mxGeometry x="760" y="970" width="40" height="40" as="geometry" />
        </mxCell>
        <mxCell id="R7ZWtzlmhz3wFBx1uZoV-22" style="edgeStyle=orthogonalEdgeStyle;rounded=0;orthogonalLoop=1;jettySize=auto;html=1;entryX=1;entryY=0.75;entryDx=0;entryDy=0;labelBackgroundColor=none;strokeColor=#0B4D6A;fontColor=default;" parent="1" source="R7ZWtzlmhz3wFBx1uZoV-23" target="R7ZWtzlmhz3wFBx1uZoV-21" edge="1">
          <mxGeometry relative="1" as="geometry">
            <Array as="points">
              <mxPoint x="820" y="1150" />
              <mxPoint x="820" y="1000" />
            </Array>
          </mxGeometry>
        </mxCell>
        <mxCell id="R7ZWtzlmhz3wFBx1uZoV-23" value="U" style="whiteSpace=wrap;html=1;aspect=fixed;labelBackgroundColor=none;fillColor=#09555B;strokeColor=#BAC8D3;fontColor=#EEEEEE;" parent="1" vertex="1">
          <mxGeometry x="760" y="1130" width="40" height="40" as="geometry" />
        </mxCell>
        <mxCell id="R7ZWtzlmhz3wFBx1uZoV-24" style="edgeStyle=orthogonalEdgeStyle;rounded=0;orthogonalLoop=1;jettySize=auto;html=1;entryX=1;entryY=0.25;entryDx=0;entryDy=0;labelBackgroundColor=none;strokeColor=#0B4D6A;fontColor=default;" parent="1" source="R7ZWtzlmhz3wFBx1uZoV-25" target="R7ZWtzlmhz3wFBx1uZoV-21" edge="1">
          <mxGeometry relative="1" as="geometry">
            <Array as="points">
              <mxPoint x="830" y="1210" />
              <mxPoint x="830" y="980" />
            </Array>
          </mxGeometry>
        </mxCell>
        <mxCell id="R7ZWtzlmhz3wFBx1uZoV-25" value="C" style="whiteSpace=wrap;html=1;aspect=fixed;labelBackgroundColor=none;fillColor=#09555B;strokeColor=#BAC8D3;fontColor=#EEEEEE;" parent="1" vertex="1">
          <mxGeometry x="760" y="1190" width="40" height="40" as="geometry" />
        </mxCell>
        <mxCell id="R7ZWtzlmhz3wFBx1uZoV-26" style="edgeStyle=orthogonalEdgeStyle;rounded=0;orthogonalLoop=1;jettySize=auto;html=1;entryX=0.5;entryY=1;entryDx=0;entryDy=0;labelBackgroundColor=none;strokeColor=#0B4D6A;fontColor=default;" parent="1" source="R7ZWtzlmhz3wFBx1uZoV-28" target="R7ZWtzlmhz3wFBx1uZoV-21" edge="1">
          <mxGeometry relative="1" as="geometry" />
        </mxCell>
        <mxCell id="R7ZWtzlmhz3wFBx1uZoV-27" style="edgeStyle=orthogonalEdgeStyle;rounded=0;orthogonalLoop=1;jettySize=auto;html=1;entryX=0;entryY=0.25;entryDx=0;entryDy=0;labelBackgroundColor=none;strokeColor=#0B4D6A;fontColor=default;" parent="1" source="R7ZWtzlmhz3wFBx1uZoV-28" target="R7ZWtzlmhz3wFBx1uZoV-33" edge="1">
          <mxGeometry relative="1" as="geometry">
            <Array as="points">
              <mxPoint x="960" y="1050" />
              <mxPoint x="960" y="1120" />
            </Array>
          </mxGeometry>
        </mxCell>
        <mxCell id="R7ZWtzlmhz3wFBx1uZoV-28" value="Tu" style="whiteSpace=wrap;html=1;aspect=fixed;labelBackgroundColor=none;fillColor=#09555B;strokeColor=#BAC8D3;fontColor=#EEEEEE;" parent="1" vertex="1">
          <mxGeometry x="760" y="1030" width="40" height="40" as="geometry" />
        </mxCell>
        <mxCell id="R7ZWtzlmhz3wFBx1uZoV-29" style="edgeStyle=orthogonalEdgeStyle;rounded=0;orthogonalLoop=1;jettySize=auto;html=1;entryX=0;entryY=0.75;entryDx=0;entryDy=0;labelBackgroundColor=none;strokeColor=#0B4D6A;fontColor=default;" parent="1" source="R7ZWtzlmhz3wFBx1uZoV-31" target="R7ZWtzlmhz3wFBx1uZoV-21" edge="1">
          <mxGeometry relative="1" as="geometry">
            <Array as="points">
              <mxPoint x="740" y="1100" />
              <mxPoint x="740" y="1000" />
            </Array>
          </mxGeometry>
        </mxCell>
        <mxCell id="R7ZWtzlmhz3wFBx1uZoV-30" style="edgeStyle=orthogonalEdgeStyle;rounded=0;orthogonalLoop=1;jettySize=auto;html=1;entryX=0;entryY=0.5;entryDx=0;entryDy=0;labelBackgroundColor=none;strokeColor=#0B4D6A;fontColor=default;" parent="1" source="R7ZWtzlmhz3wFBx1uZoV-31" target="R7ZWtzlmhz3wFBx1uZoV-33" edge="1">
          <mxGeometry relative="1" as="geometry" />
        </mxCell>
        <mxCell id="R7ZWtzlmhz3wFBx1uZoV-31" value="Tc" style="whiteSpace=wrap;html=1;aspect=fixed;labelBackgroundColor=none;fillColor=#09555B;strokeColor=#BAC8D3;fontColor=#EEEEEE;" parent="1" vertex="1">
          <mxGeometry x="760" y="1080" width="40" height="40" as="geometry" />
        </mxCell>
        <mxCell id="R7ZWtzlmhz3wFBx1uZoV-32" style="edgeStyle=orthogonalEdgeStyle;rounded=0;orthogonalLoop=1;jettySize=auto;html=1;entryX=0.5;entryY=1;entryDx=0;entryDy=0;labelBackgroundColor=none;strokeColor=#0B4D6A;fontColor=default;" parent="1" source="R7ZWtzlmhz3wFBx1uZoV-33" target="R7ZWtzlmhz3wFBx1uZoV-10" edge="1">
          <mxGeometry relative="1" as="geometry">
            <Array as="points">
              <mxPoint x="1130" y="1250" />
              <mxPoint x="370" y="1250" />
            </Array>
          </mxGeometry>
        </mxCell>
        <mxCell id="R7ZWtzlmhz3wFBx1uZoV-33" value="R" style="whiteSpace=wrap;html=1;aspect=fixed;labelBackgroundColor=none;fillColor=#09555B;strokeColor=#BAC8D3;fontColor=#EEEEEE;" parent="1" vertex="1">
          <mxGeometry x="1110" y="1110" width="40" height="40" as="geometry" />
        </mxCell>
        <mxCell id="R7ZWtzlmhz3wFBx1uZoV-34" style="edgeStyle=orthogonalEdgeStyle;rounded=0;orthogonalLoop=1;jettySize=auto;html=1;entryX=0;entryY=0.5;entryDx=0;entryDy=0;labelBackgroundColor=none;strokeColor=#0B4D6A;fontColor=default;" parent="1" source="R7ZWtzlmhz3wFBx1uZoV-35" target="R7ZWtzlmhz3wFBx1uZoV-39" edge="1">
          <mxGeometry relative="1" as="geometry" />
        </mxCell>
        <mxCell id="R7ZWtzlmhz3wFBx1uZoV-35" value="S" style="whiteSpace=wrap;html=1;aspect=fixed;labelBackgroundColor=none;fillColor=#09555B;strokeColor=#BAC8D3;fontColor=#EEEEEE;" parent="1" vertex="1">
          <mxGeometry x="1410" y="579.97" width="40" height="40" as="geometry" />
        </mxCell>
        <mxCell id="R7ZWtzlmhz3wFBx1uZoV-36" style="edgeStyle=orthogonalEdgeStyle;rounded=0;orthogonalLoop=1;jettySize=auto;html=1;entryX=0;entryY=0.5;entryDx=0;entryDy=0;labelBackgroundColor=none;strokeColor=#0B4D6A;fontColor=default;" parent="1" source="R7ZWtzlmhz3wFBx1uZoV-39" target="R7ZWtzlmhz3wFBx1uZoV-41" edge="1">
          <mxGeometry relative="1" as="geometry" />
        </mxCell>
        <mxCell id="R7ZWtzlmhz3wFBx1uZoV-37" style="edgeStyle=orthogonalEdgeStyle;rounded=0;orthogonalLoop=1;jettySize=auto;html=1;entryX=0;entryY=0.5;entryDx=0;entryDy=0;labelBackgroundColor=none;strokeColor=#0B4D6A;fontColor=default;" parent="1" source="R7ZWtzlmhz3wFBx1uZoV-39" target="R7ZWtzlmhz3wFBx1uZoV-43" edge="1">
          <mxGeometry relative="1" as="geometry" />
        </mxCell>
        <mxCell id="R7ZWtzlmhz3wFBx1uZoV-38" style="edgeStyle=orthogonalEdgeStyle;rounded=0;orthogonalLoop=1;jettySize=auto;html=1;entryX=0;entryY=0.5;entryDx=0;entryDy=0;labelBackgroundColor=none;strokeColor=#0B4D6A;fontColor=default;" parent="1" source="R7ZWtzlmhz3wFBx1uZoV-39" target="R7ZWtzlmhz3wFBx1uZoV-45" edge="1">
          <mxGeometry relative="1" as="geometry" />
        </mxCell>
        <mxCell id="R7ZWtzlmhz3wFBx1uZoV-79" style="edgeStyle=orthogonalEdgeStyle;rounded=0;orthogonalLoop=1;jettySize=auto;html=1;entryX=0;entryY=0.75;entryDx=0;entryDy=0;strokeColor=#0B4D6A;labelBackgroundColor=none;fontColor=default;" parent="1" source="R7ZWtzlmhz3wFBx1uZoV-39" target="R7ZWtzlmhz3wFBx1uZoV-51" edge="1">
          <mxGeometry relative="1" as="geometry" />
        </mxCell>
        <mxCell id="R7ZWtzlmhz3wFBx1uZoV-80" style="edgeStyle=orthogonalEdgeStyle;rounded=0;orthogonalLoop=1;jettySize=auto;html=1;entryX=0;entryY=0.5;entryDx=0;entryDy=0;strokeColor=#0B4D6A;labelBackgroundColor=none;fontColor=default;" parent="1" source="R7ZWtzlmhz3wFBx1uZoV-39" target="R7ZWtzlmhz3wFBx1uZoV-48" edge="1">
          <mxGeometry relative="1" as="geometry" />
        </mxCell>
        <mxCell id="R7ZWtzlmhz3wFBx1uZoV-39" value="E" style="whiteSpace=wrap;html=1;aspect=fixed;labelBackgroundColor=none;fillColor=#09555B;strokeColor=#BAC8D3;fontColor=#EEEEEE;" parent="1" vertex="1">
          <mxGeometry x="1610" y="579.97" width="40" height="40" as="geometry" />
        </mxCell>
        <mxCell id="R7ZWtzlmhz3wFBx1uZoV-40" style="edgeStyle=orthogonalEdgeStyle;rounded=0;orthogonalLoop=1;jettySize=auto;html=1;entryX=0.75;entryY=0;entryDx=0;entryDy=0;labelBackgroundColor=none;strokeColor=#0B4D6A;fontColor=default;" parent="1" source="R7ZWtzlmhz3wFBx1uZoV-41" target="R7ZWtzlmhz3wFBx1uZoV-53" edge="1">
          <mxGeometry relative="1" as="geometry" />
        </mxCell>
        <mxCell id="R7ZWtzlmhz3wFBx1uZoV-41" value="A" style="whiteSpace=wrap;html=1;aspect=fixed;labelBackgroundColor=none;fillColor=#09555B;strokeColor=#BAC8D3;fontColor=#EEEEEE;" parent="1" vertex="1">
          <mxGeometry x="1820" y="459.97" width="40" height="40" as="geometry" />
        </mxCell>
        <mxCell id="R7ZWtzlmhz3wFBx1uZoV-42" style="edgeStyle=orthogonalEdgeStyle;rounded=0;orthogonalLoop=1;jettySize=auto;html=1;entryX=1;entryY=0.75;entryDx=0;entryDy=0;labelBackgroundColor=none;strokeColor=#0B4D6A;fontColor=default;" parent="1" source="R7ZWtzlmhz3wFBx1uZoV-43" target="R7ZWtzlmhz3wFBx1uZoV-41" edge="1">
          <mxGeometry relative="1" as="geometry">
            <Array as="points">
              <mxPoint x="1880" y="639.97" />
              <mxPoint x="1880" y="489.97" />
            </Array>
          </mxGeometry>
        </mxCell>
        <mxCell id="R7ZWtzlmhz3wFBx1uZoV-43" value="U" style="whiteSpace=wrap;html=1;aspect=fixed;labelBackgroundColor=none;fillColor=#09555B;strokeColor=#BAC8D3;fontColor=#EEEEEE;" parent="1" vertex="1">
          <mxGeometry x="1820" y="619.97" width="40" height="40" as="geometry" />
        </mxCell>
        <mxCell id="R7ZWtzlmhz3wFBx1uZoV-44" style="edgeStyle=orthogonalEdgeStyle;rounded=0;orthogonalLoop=1;jettySize=auto;html=1;entryX=1;entryY=0.25;entryDx=0;entryDy=0;labelBackgroundColor=none;strokeColor=#0B4D6A;fontColor=default;" parent="1" source="R7ZWtzlmhz3wFBx1uZoV-45" target="R7ZWtzlmhz3wFBx1uZoV-41" edge="1">
          <mxGeometry relative="1" as="geometry">
            <Array as="points">
              <mxPoint x="1890" y="699.97" />
              <mxPoint x="1890" y="469.97" />
            </Array>
          </mxGeometry>
        </mxCell>
        <mxCell id="R7ZWtzlmhz3wFBx1uZoV-45" value="C" style="whiteSpace=wrap;html=1;aspect=fixed;labelBackgroundColor=none;fillColor=#09555B;strokeColor=#BAC8D3;fontColor=#EEEEEE;" parent="1" vertex="1">
          <mxGeometry x="1820" y="679.97" width="40" height="40" as="geometry" />
        </mxCell>
        <mxCell id="R7ZWtzlmhz3wFBx1uZoV-46" style="edgeStyle=orthogonalEdgeStyle;rounded=0;orthogonalLoop=1;jettySize=auto;html=1;entryX=0.5;entryY=1;entryDx=0;entryDy=0;labelBackgroundColor=none;strokeColor=#0B4D6A;fontColor=default;" parent="1" source="R7ZWtzlmhz3wFBx1uZoV-48" target="R7ZWtzlmhz3wFBx1uZoV-41" edge="1">
          <mxGeometry relative="1" as="geometry" />
        </mxCell>
        <mxCell id="R7ZWtzlmhz3wFBx1uZoV-47" style="edgeStyle=orthogonalEdgeStyle;rounded=0;orthogonalLoop=1;jettySize=auto;html=1;entryX=0;entryY=0.25;entryDx=0;entryDy=0;labelBackgroundColor=none;strokeColor=#0B4D6A;fontColor=default;" parent="1" source="R7ZWtzlmhz3wFBx1uZoV-48" target="R7ZWtzlmhz3wFBx1uZoV-53" edge="1">
          <mxGeometry relative="1" as="geometry">
            <Array as="points">
              <mxPoint x="2020" y="539.97" />
              <mxPoint x="2020" y="609.97" />
            </Array>
          </mxGeometry>
        </mxCell>
        <mxCell id="R7ZWtzlmhz3wFBx1uZoV-48" value="Tu" style="whiteSpace=wrap;html=1;aspect=fixed;labelBackgroundColor=none;fillColor=#09555B;strokeColor=#BAC8D3;fontColor=#EEEEEE;" parent="1" vertex="1">
          <mxGeometry x="1820" y="519.97" width="40" height="40" as="geometry" />
        </mxCell>
        <mxCell id="R7ZWtzlmhz3wFBx1uZoV-49" style="edgeStyle=orthogonalEdgeStyle;rounded=0;orthogonalLoop=1;jettySize=auto;html=1;entryX=0;entryY=0.75;entryDx=0;entryDy=0;labelBackgroundColor=none;strokeColor=#0B4D6A;fontColor=default;" parent="1" source="R7ZWtzlmhz3wFBx1uZoV-51" target="R7ZWtzlmhz3wFBx1uZoV-41" edge="1">
          <mxGeometry relative="1" as="geometry">
            <Array as="points">
              <mxPoint x="1800" y="589.97" />
              <mxPoint x="1800" y="489.97" />
            </Array>
          </mxGeometry>
        </mxCell>
        <mxCell id="R7ZWtzlmhz3wFBx1uZoV-50" style="edgeStyle=orthogonalEdgeStyle;rounded=0;orthogonalLoop=1;jettySize=auto;html=1;entryX=0;entryY=0.5;entryDx=0;entryDy=0;labelBackgroundColor=none;strokeColor=#0B4D6A;fontColor=default;" parent="1" source="R7ZWtzlmhz3wFBx1uZoV-51" target="R7ZWtzlmhz3wFBx1uZoV-53" edge="1">
          <mxGeometry relative="1" as="geometry" />
        </mxCell>
        <mxCell id="R7ZWtzlmhz3wFBx1uZoV-51" value="Tc" style="whiteSpace=wrap;html=1;aspect=fixed;labelBackgroundColor=none;fillColor=#09555B;strokeColor=#BAC8D3;fontColor=#EEEEEE;" parent="1" vertex="1">
          <mxGeometry x="1820" y="569.97" width="40" height="40" as="geometry" />
        </mxCell>
        <mxCell id="R7ZWtzlmhz3wFBx1uZoV-52" style="edgeStyle=orthogonalEdgeStyle;rounded=0;orthogonalLoop=1;jettySize=auto;html=1;entryX=0.5;entryY=1;entryDx=0;entryDy=0;labelBackgroundColor=none;strokeColor=#0B4D6A;fontColor=default;" parent="1" source="R7ZWtzlmhz3wFBx1uZoV-53" target="R7ZWtzlmhz3wFBx1uZoV-35" edge="1">
          <mxGeometry relative="1" as="geometry">
            <Array as="points">
              <mxPoint x="2190" y="739.97" />
              <mxPoint x="1430" y="739.97" />
            </Array>
          </mxGeometry>
        </mxCell>
        <mxCell id="R7ZWtzlmhz3wFBx1uZoV-53" value="R" style="whiteSpace=wrap;html=1;aspect=fixed;labelBackgroundColor=none;fillColor=#09555B;strokeColor=#BAC8D3;fontColor=#EEEEEE;" parent="1" vertex="1">
          <mxGeometry x="2170" y="599.97" width="40" height="40" as="geometry" />
        </mxCell>
        <mxCell id="R7ZWtzlmhz3wFBx1uZoV-54" style="edgeStyle=orthogonalEdgeStyle;rounded=0;orthogonalLoop=1;jettySize=auto;html=1;entryX=0;entryY=0.5;entryDx=0;entryDy=0;labelBackgroundColor=none;strokeColor=#0B4D6A;fontColor=default;" parent="1" source="R7ZWtzlmhz3wFBx1uZoV-55" target="R7ZWtzlmhz3wFBx1uZoV-59" edge="1">
          <mxGeometry relative="1" as="geometry" />
        </mxCell>
        <mxCell id="R7ZWtzlmhz3wFBx1uZoV-55" value="S" style="whiteSpace=wrap;html=1;aspect=fixed;labelBackgroundColor=none;fillColor=#09555B;strokeColor=#BAC8D3;fontColor=#EEEEEE;" parent="1" vertex="1">
          <mxGeometry x="1410" y="1069.95" width="40" height="40" as="geometry" />
        </mxCell>
        <mxCell id="R7ZWtzlmhz3wFBx1uZoV-56" style="edgeStyle=orthogonalEdgeStyle;rounded=0;orthogonalLoop=1;jettySize=auto;html=1;entryX=0;entryY=0.5;entryDx=0;entryDy=0;labelBackgroundColor=none;strokeColor=#0B4D6A;fontColor=default;" parent="1" source="R7ZWtzlmhz3wFBx1uZoV-59" target="R7ZWtzlmhz3wFBx1uZoV-61" edge="1">
          <mxGeometry relative="1" as="geometry" />
        </mxCell>
        <mxCell id="R7ZWtzlmhz3wFBx1uZoV-57" style="edgeStyle=orthogonalEdgeStyle;rounded=0;orthogonalLoop=1;jettySize=auto;html=1;entryX=0;entryY=0.5;entryDx=0;entryDy=0;labelBackgroundColor=none;strokeColor=#0B4D6A;fontColor=default;" parent="1" source="R7ZWtzlmhz3wFBx1uZoV-59" target="R7ZWtzlmhz3wFBx1uZoV-63" edge="1">
          <mxGeometry relative="1" as="geometry" />
        </mxCell>
        <mxCell id="R7ZWtzlmhz3wFBx1uZoV-58" style="edgeStyle=orthogonalEdgeStyle;rounded=0;orthogonalLoop=1;jettySize=auto;html=1;entryX=0;entryY=0.5;entryDx=0;entryDy=0;labelBackgroundColor=none;strokeColor=#0B4D6A;fontColor=default;" parent="1" source="R7ZWtzlmhz3wFBx1uZoV-59" target="R7ZWtzlmhz3wFBx1uZoV-65" edge="1">
          <mxGeometry relative="1" as="geometry" />
        </mxCell>
        <mxCell id="R7ZWtzlmhz3wFBx1uZoV-81" style="edgeStyle=orthogonalEdgeStyle;rounded=0;orthogonalLoop=1;jettySize=auto;html=1;entryX=0;entryY=0.75;entryDx=0;entryDy=0;strokeColor=#0B4D6A;labelBackgroundColor=none;fontColor=default;" parent="1" source="R7ZWtzlmhz3wFBx1uZoV-59" target="R7ZWtzlmhz3wFBx1uZoV-71" edge="1">
          <mxGeometry relative="1" as="geometry" />
        </mxCell>
        <mxCell id="R7ZWtzlmhz3wFBx1uZoV-84" style="edgeStyle=orthogonalEdgeStyle;rounded=0;orthogonalLoop=1;jettySize=auto;html=1;entryX=0;entryY=0.5;entryDx=0;entryDy=0;strokeColor=#0B4D6A;labelBackgroundColor=none;fontColor=default;" parent="1" source="R7ZWtzlmhz3wFBx1uZoV-59" target="R7ZWtzlmhz3wFBx1uZoV-68" edge="1">
          <mxGeometry relative="1" as="geometry" />
        </mxCell>
        <mxCell id="R7ZWtzlmhz3wFBx1uZoV-59" value="E" style="whiteSpace=wrap;html=1;aspect=fixed;labelBackgroundColor=none;fillColor=#09555B;strokeColor=#BAC8D3;fontColor=#EEEEEE;" parent="1" vertex="1">
          <mxGeometry x="1610" y="1069.95" width="40" height="40" as="geometry" />
        </mxCell>
        <mxCell id="R7ZWtzlmhz3wFBx1uZoV-60" style="edgeStyle=orthogonalEdgeStyle;rounded=0;orthogonalLoop=1;jettySize=auto;html=1;entryX=0.75;entryY=0;entryDx=0;entryDy=0;labelBackgroundColor=none;strokeColor=#0B4D6A;fontColor=default;" parent="1" source="R7ZWtzlmhz3wFBx1uZoV-61" target="R7ZWtzlmhz3wFBx1uZoV-73" edge="1">
          <mxGeometry relative="1" as="geometry" />
        </mxCell>
        <mxCell id="R7ZWtzlmhz3wFBx1uZoV-61" value="A" style="whiteSpace=wrap;html=1;aspect=fixed;labelBackgroundColor=none;fillColor=#09555B;strokeColor=#BAC8D3;fontColor=#EEEEEE;" parent="1" vertex="1">
          <mxGeometry x="1820" y="949.95" width="40" height="40" as="geometry" />
        </mxCell>
        <mxCell id="R7ZWtzlmhz3wFBx1uZoV-62" style="edgeStyle=orthogonalEdgeStyle;rounded=0;orthogonalLoop=1;jettySize=auto;html=1;entryX=1;entryY=0.75;entryDx=0;entryDy=0;labelBackgroundColor=none;strokeColor=#0B4D6A;fontColor=default;" parent="1" source="R7ZWtzlmhz3wFBx1uZoV-63" target="R7ZWtzlmhz3wFBx1uZoV-61" edge="1">
          <mxGeometry relative="1" as="geometry">
            <Array as="points">
              <mxPoint x="1880" y="1129.95" />
              <mxPoint x="1880" y="979.95" />
            </Array>
          </mxGeometry>
        </mxCell>
        <mxCell id="R7ZWtzlmhz3wFBx1uZoV-63" value="U" style="whiteSpace=wrap;html=1;aspect=fixed;labelBackgroundColor=none;fillColor=#09555B;strokeColor=#BAC8D3;fontColor=#EEEEEE;" parent="1" vertex="1">
          <mxGeometry x="1820" y="1109.95" width="40" height="40" as="geometry" />
        </mxCell>
        <mxCell id="R7ZWtzlmhz3wFBx1uZoV-64" style="edgeStyle=orthogonalEdgeStyle;rounded=0;orthogonalLoop=1;jettySize=auto;html=1;entryX=1;entryY=0.25;entryDx=0;entryDy=0;labelBackgroundColor=none;strokeColor=#0B4D6A;fontColor=default;" parent="1" source="R7ZWtzlmhz3wFBx1uZoV-65" target="R7ZWtzlmhz3wFBx1uZoV-61" edge="1">
          <mxGeometry relative="1" as="geometry">
            <Array as="points">
              <mxPoint x="1890" y="1189.95" />
              <mxPoint x="1890" y="959.95" />
            </Array>
          </mxGeometry>
        </mxCell>
        <mxCell id="R7ZWtzlmhz3wFBx1uZoV-65" value="C" style="whiteSpace=wrap;html=1;aspect=fixed;labelBackgroundColor=none;fillColor=#09555B;strokeColor=#BAC8D3;fontColor=#EEEEEE;" parent="1" vertex="1">
          <mxGeometry x="1820" y="1169.95" width="40" height="40" as="geometry" />
        </mxCell>
        <mxCell id="R7ZWtzlmhz3wFBx1uZoV-66" style="edgeStyle=orthogonalEdgeStyle;rounded=0;orthogonalLoop=1;jettySize=auto;html=1;entryX=0.5;entryY=1;entryDx=0;entryDy=0;labelBackgroundColor=none;strokeColor=#0B4D6A;fontColor=default;" parent="1" source="R7ZWtzlmhz3wFBx1uZoV-68" target="R7ZWtzlmhz3wFBx1uZoV-61" edge="1">
          <mxGeometry relative="1" as="geometry" />
        </mxCell>
        <mxCell id="R7ZWtzlmhz3wFBx1uZoV-67" style="edgeStyle=orthogonalEdgeStyle;rounded=0;orthogonalLoop=1;jettySize=auto;html=1;entryX=0;entryY=0.25;entryDx=0;entryDy=0;labelBackgroundColor=none;strokeColor=#0B4D6A;fontColor=default;" parent="1" source="R7ZWtzlmhz3wFBx1uZoV-68" target="R7ZWtzlmhz3wFBx1uZoV-73" edge="1">
          <mxGeometry relative="1" as="geometry">
            <Array as="points">
              <mxPoint x="2020" y="1029.95" />
              <mxPoint x="2020" y="1099.95" />
            </Array>
          </mxGeometry>
        </mxCell>
        <mxCell id="R7ZWtzlmhz3wFBx1uZoV-68" value="Tu" style="whiteSpace=wrap;html=1;aspect=fixed;labelBackgroundColor=none;fillColor=#09555B;strokeColor=#BAC8D3;fontColor=#EEEEEE;" parent="1" vertex="1">
          <mxGeometry x="1820" y="1009.95" width="40" height="40" as="geometry" />
        </mxCell>
        <mxCell id="R7ZWtzlmhz3wFBx1uZoV-69" style="edgeStyle=orthogonalEdgeStyle;rounded=0;orthogonalLoop=1;jettySize=auto;html=1;entryX=0;entryY=0.75;entryDx=0;entryDy=0;labelBackgroundColor=none;strokeColor=#0B4D6A;fontColor=default;" parent="1" source="R7ZWtzlmhz3wFBx1uZoV-71" target="R7ZWtzlmhz3wFBx1uZoV-61" edge="1">
          <mxGeometry relative="1" as="geometry">
            <Array as="points">
              <mxPoint x="1800" y="1079.95" />
              <mxPoint x="1800" y="979.95" />
            </Array>
          </mxGeometry>
        </mxCell>
        <mxCell id="R7ZWtzlmhz3wFBx1uZoV-70" style="edgeStyle=orthogonalEdgeStyle;rounded=0;orthogonalLoop=1;jettySize=auto;html=1;entryX=0;entryY=0.5;entryDx=0;entryDy=0;labelBackgroundColor=none;strokeColor=#0B4D6A;fontColor=default;" parent="1" source="R7ZWtzlmhz3wFBx1uZoV-71" target="R7ZWtzlmhz3wFBx1uZoV-73" edge="1">
          <mxGeometry relative="1" as="geometry" />
        </mxCell>
        <mxCell id="R7ZWtzlmhz3wFBx1uZoV-71" value="Tc" style="whiteSpace=wrap;html=1;aspect=fixed;labelBackgroundColor=none;fillColor=#09555B;strokeColor=#BAC8D3;fontColor=#EEEEEE;" parent="1" vertex="1">
          <mxGeometry x="1820" y="1059.95" width="40" height="40" as="geometry" />
        </mxCell>
        <mxCell id="R7ZWtzlmhz3wFBx1uZoV-72" style="edgeStyle=orthogonalEdgeStyle;rounded=0;orthogonalLoop=1;jettySize=auto;html=1;entryX=0.5;entryY=1;entryDx=0;entryDy=0;labelBackgroundColor=none;strokeColor=#0B4D6A;fontColor=default;" parent="1" source="R7ZWtzlmhz3wFBx1uZoV-73" target="R7ZWtzlmhz3wFBx1uZoV-55" edge="1">
          <mxGeometry relative="1" as="geometry">
            <Array as="points">
              <mxPoint x="2190" y="1229.95" />
              <mxPoint x="1430" y="1229.95" />
            </Array>
          </mxGeometry>
        </mxCell>
        <mxCell id="R7ZWtzlmhz3wFBx1uZoV-73" value="R" style="whiteSpace=wrap;html=1;aspect=fixed;labelBackgroundColor=none;fillColor=#09555B;strokeColor=#BAC8D3;fontColor=#EEEEEE;" parent="1" vertex="1">
          <mxGeometry x="2170" y="1089.95" width="40" height="40" as="geometry" />
        </mxCell>
      </root>
    </mxGraphModel>
  </diagram>
</mxfile>
